<svg width="980" height="551" xmlns="http://www.w3.org/2000/svg" xmlns:xlink="http://www.w3.org/1999/xlink">
<path fill="#ff595e" d="M 260.86 404.88 Q 260.86 404.88 263.41 405.20 265.97 405.51 267.85 406.98 269.74 408.45 271.24 410.39 272.75 412.33 274.73 414.48 276.71 416.63 279.83 419.24 282.96 421.86 287.76 425.00 292.56 428.14 298.94 431.21 305.32 434.27 312.35 436.43 319.38 438.58 326.46 440.09 333.54 441.60 339.72 442.23 345.89 442.86 350.28 443.14 354.67 443.41 357.61 443.23 360.55 443.06 362.81 442.44 365.06 441.82 366.68 440.51 368.29 439.21 370.23 437.47 372.16 435.73 374.87 433.54 377.58 431.34 377.59 431.35 377.59 431.35 377.60 431.35 377.60 431.35 376.22 435.03 374.83 438.70 372.77 440.55 370.70 442.40 368.45 444.02 366.20 445.63 363.50 446.34 360.80 447.05 357.61 447.22 354.43 447.40 349.95 447.12 345.48 446.84 339.09 446.18 332.71 445.51 325.46 443.96 318.21 442.41 310.90 440.14 303.59 437.88 296.98 434.68 290.37 431.49 285.38 428.21 280.39 424.93 277.07 422.13 273.76 419.33 271.66 417.04 269.56 414.75 268.40 413.16 267.24 411.57 265.61 410.28 263.98 408.98 262.41 406.94 260.85 404.90 260.86 404.89 Z" data-drauu_index="0"></path><path fill="#ff595e" d="M 367.24 411.02 Q 367.24 411.02 369.30 410.03 371.36 409.03 373.89 408.74 376.42 408.46 380.42 407.75 384.42 407.05 387.92 406.45 391.41 405.85 394.45 405.59 397.48 405.32 398.89 404.95 400.30 404.57 402.33 405.01 404.36 405.46 405.57 407.89 406.77 410.33 406.59 414.57 406.41 418.81 404.78 423.08 403.14 427.36 400.96 431.50 398.77 435.65 396.68 439.45 394.58 443.24 392.78 446.07 390.98 448.91 388.48 450.48 385.98 452.05 385.98 452.05 385.98 452.05 385.97 452.04 385.97 452.04 386.79 449.40 387.61 446.76 389.34 444.04 391.08 441.31 393.16 437.54 395.23 433.78 397.33 429.84 399.42 425.89 400.93 422.20 402.43 418.50 402.73 415.07 403.02 411.63 402.12 410.04 401.22 408.45 399.53 408.88 397.83 409.31 394.96 409.55 392.09 409.79 388.60 410.39 385.11 410.99 380.99 411.71 376.86 412.43 374.11 412.73 371.36 413.03 369.30 412.04 367.24 411.04 367.24 411.03 Z" data-drauu_index="1"></path><path fill="#ff595e" d="M 767.23 346.59 Q 767.23 346.59 767.60 348.92 767.97 351.25 766.83 354.80 765.69 358.36 763.41 363.76 761.13 369.16 756.90 376.82 752.66 384.47 747.26 391.34 741.86 398.22 735.64 403.58 729.42 408.94 722.52 412.46 715.62 415.99 708.71 417.51 701.81 419.04 695.93 419.67 690.04 420.30 684.53 420.27 679.02 420.24 674.48 419.32 669.93 418.41 666.26 417.42 662.59 416.44 659.53 415.42 656.46 414.41 654.55 413.67 652.64 412.94 651.24 412.28 649.84 411.62 648.67 410.39 647.50 409.16 647.50 409.15 647.50 409.15 647.50 409.14 647.50 409.14 649.43 408.63 651.36 408.12 652.72 408.66 654.08 409.21 655.91 409.91 657.73 410.61 660.68 411.60 663.63 412.58 667.18 413.53 670.74 414.49 674.90 415.37 679.06 416.24 684.34 416.28 689.62 416.32 695.29 415.72 700.96 415.13 707.40 413.77 713.84 412.41 720.34 409.15 726.84 405.89 732.78 400.81 738.73 395.73 743.95 389.13 749.16 382.52 753.31 375.06 757.45 367.61 759.66 362.37 761.88 357.13 763.00 353.64 764.12 350.15 765.67 348.37 767.21 346.58 767.22 346.58 Z" data-drauu_index="2"></path><path fill="#ff595e" d="M 647.55 387.51 Q 647.55 387.51 647.58 389.96 647.61 392.41 646.05 395.94 644.50 399.47 642.96 403.02 641.42 406.57 640.51 409.46 639.59 412.34 639.22 414.61 638.85 416.88 639.24 418.10 639.62 419.32 640.76 420.10 641.90 420.87 643.34 421.29 644.78 421.72 647.49 422.50 650.20 423.29 653.15 424.22 656.09 425.15 657.92 426.79 659.74 428.42 659.74 428.42 659.74 428.43 659.74 428.43 659.74 428.44 657.31 428.70 654.89 428.96 651.99 428.05 649.09 427.13 646.36 426.34 643.62 425.55 641.93 425.03 640.24 424.51 638.99 423.83 637.75 423.14 636.78 421.79 635.81 420.44 635.36 418.40 634.91 416.37 635.35 413.75 635.78 411.13 636.77 408.06 637.75 404.98 639.29 401.42 640.84 397.86 642.39 394.35 643.93 390.83 645.73 389.17 647.53 387.50 647.54 387.50 Z" data-drauu_index="3"></path><path fill="#ff595e" d="M 524.79 244.28 Q 524.79 244.28 526.61 246.29 528.42 248.30 529.14 253.03 529.86 257.76 530.16 263.61 530.45 269.45 530.57 274.86 530.69 280.27 530.45 284.41 530.20 288.54 530.09 290.56 529.98 292.57 528.51 294.45 527.05 296.33 527.04 296.33 527.04 296.32 527.03 296.32 527.03 296.32 526.53 294.33 526.02 292.34 526.12 290.32 526.21 288.30 526.45 284.33 526.69 280.36 526.57 275.00 526.45 269.65 526.18 264.00 525.90 258.34 525.29 254.02 524.67 249.69 524.72 246.99 524.77 244.29 524.78 244.29 Z" data-drauu_index="4"></path><path fill="#ff595e" d="M 504.33 289.29 Q 504.33 289.29 506.11 290.63 507.89 291.97 508.35 295.07 508.82 298.18 508.99 301.81 509.15 305.45 509.22 309.04 509.29 312.63 509.32 315.92 509.35 319.21 508.37 323.18 507.39 327.14 507.39 327.14 507.38 327.14 507.38 327.14 507.37 327.14 506.36 323.20 505.35 319.25 505.32 315.98 505.29 312.71 505.22 309.17 505.16 305.63 505.01 302.17 504.85 298.71 504.57 296.20 504.29 293.69 504.30 291.50 504.31 289.30 504.32 289.30 Z" data-drauu_index="5"></path><path fill="#ff595e" d="M 487.96 307.71 Q 487.96 307.71 489.92 308.55 491.87 309.40 492.92 310.57 493.97 311.74 495.51 313.05 497.06 314.35 498.90 315.80 500.73 317.25 502.52 318.05 504.30 318.86 505.96 319.52 507.62 320.18 509.25 320.42 510.88 320.66 512.42 319.95 513.97 319.24 516.27 318.34 518.57 317.43 520.25 316.26 521.93 315.09 523.49 314.46 525.04 313.83 526.16 312.70 527.27 311.56 530.02 310.66 532.77 309.75 532.77 309.75 532.77 309.76 532.78 309.76 532.78 309.76 531.41 312.10 530.05 314.44 529.18 315.28 528.31 316.12 527.44 316.81 526.57 317.51 525.37 317.96 524.16 318.41 522.11 319.78 520.05 321.14 517.72 322.06 515.40 322.98 512.97 323.78 510.54 324.59 508.35 324.25 506.16 323.90 504.38 323.19 502.61 322.48 500.44 321.44 498.28 320.40 496.37 318.90 494.46 317.40 492.73 315.91 491.00 314.42 489.87 313.16 488.75 311.90 488.35 309.81 487.95 307.72 487.95 307.71 Z" data-drauu_index="6"></path>
</svg>